<?xml version="1.0" encoding="utf-8"?>
<!-- Generator: Adobe Illustrator 16.0.0, SVG Export Plug-In . SVG Version: 6.00 Build 0)  -->
<!DOCTYPE svg PUBLIC "-//W3C//DTD SVG 1.1//EN" "http://www.w3.org/Graphics/SVG/1.1/DTD/svg11.dtd">
<svg version="1.1" id="Art" xmlns="http://www.w3.org/2000/svg" xmlns:xlink="http://www.w3.org/1999/xlink" x="0px" y="0px"
	 width="510px" height="508.441px" viewBox="49.583 143.125 510 508.441" enable-background="new 49.583 143.125 510 508.441"
	 xml:space="preserve">
<g id="New_Symbol_14_1_">
</g>
<g id="New_Symbol_14">
</g>
<path fill="#FFA500" d="M304.583,143.125c-140.817,0-255,114.184-255,255c0,131.325,99.308,239.559,227.091,253.441
	c0.284-3.967,0.567-7.934,0.708-11.899c0.567-8.217,0.992-16.434,1.559-24.509c0.283-4.816,0.283-9.633-0.425-14.309
	c-1.417-8.925-4.816-17.425-9.917-25.074c-9.633-14.45-19.408-28.759-29.184-42.926c-6.375-9.35-11.05-19.267-13.033-30.175
	c-0.425-2.55-0.708-5.241-0.992-7.791c0-2.692,0-5.384,0-8.075c0-0.142,0.142-0.425,0.142-0.567
	c0.708-7.649,20.117-206.975,20.825-215.05c0-0.708,0.283-1.133,1.133-1.133c6.941,0,13.883,0,20.825,0
	c0,0.283-9.208,189.691-8.925,194.508c0.708,8.783,6.658,13.175,15.725,13.175c7.792,0,14.592-6.375,14.875-13.458
	c0.425-9.066,6.8-175.525,6.8-178.075c6.233,0,12.325,0,18.558,0c0,0.142,0,0.283,0.143,0.425
	c0.283,6.658,4.675,162.35,4.958,174.392c0.142,4.25,0.991,8.216,3.542,11.758c3.399,4.533,8.357,5.95,14.166,5.809
	c7.65-0.283,14.45-6.375,14.45-13.458c0.142-7.509-8.075-191.675-8.217-195.217c3.542,0,17.283,0.142,19.975,0.142
	c0.567,0,0.992,0,0.992,0.708c0.283,2.975,0.566,5.95,0.85,8.925c0.709,7.083,18.559,188.275,19.125,195.642
	c0.426,5.525,0.992,11.05,0.992,16.575c0,12.042-3.259,23.233-9.492,33.858c-3.116,5.242-6.8,10.2-10.058,15.441
	c-4.959,7.65-10.059,15.3-15.867,22.525c-5.95,7.366-10.2,15.583-13.033,24.225c-4.958,14.45-5.667,29.184-4.533,44.2
	c0.425,6.517,0.991,12.892,1.417,19.408c126.508-15.017,224.824-122.684,224.824-253.441
	C559.583,257.309,445.4,143.125,304.583,143.125z"/>
</svg>
