<?xml version="1.0" encoding="utf-8"?>
<!-- Generator: Adobe Illustrator 16.0.0, SVG Export Plug-In . SVG Version: 6.00 Build 0)  -->
<!DOCTYPE svg PUBLIC "-//W3C//DTD SVG 1.1//EN" "http://www.w3.org/Graphics/SVG/1.1/DTD/svg11.dtd">
<svg version="1.1" id="Art" xmlns="http://www.w3.org/2000/svg" xmlns:xlink="http://www.w3.org/1999/xlink" x="0px" y="0px"
	 width="509.718px" height="510.422px" viewBox="51.141 140.789 509.718 510.422"
	 enable-background="new 51.141 140.789 509.718 510.422" xml:space="preserve">
<ellipse opacity="0.7" cx="306" cy="396.001" rx="254.858" ry="255.21"/>
<g id="New_Symbol_14_1_">
</g>
<g id="New_Symbol_14">
</g>
<g>
	<rect x="270.582" y="323.964" fill="#FFA500" width="19.125" height="63.75"/>
	<rect x="448.092" y="323.964" fill="#FFA500" width="19.125" height="63.75"/>
	<path fill="#FFA500" d="M306.141,140.789c-140.816,0-255,114.184-255,255c0,85.424,42.075,161.074,106.533,207.398
		c0.142-1.273,0.142-2.691,0.283-3.967c0.425-6.801,0.85-13.459,1.134-20.258c0.282-6.092,0.708-12.184,0.991-18.275
		c0.283-3.541,0.142-7.082-0.283-10.768c-0.992-6.658-3.258-12.891-6.801-18.699c-6.657-10.768-13.316-21.393-20.116-32.018
		c-4.392-6.941-7.65-14.309-8.925-22.523c-0.284-1.982-0.425-3.967-0.708-5.809c0-1.984,0-3.967,0-5.951
		c0-0.141,0-0.283,0.142-0.424c0.567-5.668,13.883-154.275,14.308-160.367c0-0.566,0.142-0.851,0.85-0.851c4.817,0,9.492,0,14.309,0
		c0,0.143-6.375,141.384-6.092,145.065c0.425,6.518,4.533,9.918,10.768,9.918c5.383,0,10.059-4.676,10.199-10.059
		c0.283-6.801,4.676-130.899,4.676-132.741c4.25,0,8.5,0,12.75,0c0,0.142,0,0.283,0,0.283c0.142,4.958,3.258,120.981,3.399,130.05
		c0.142,3.117,0.708,6.092,2.409,8.783c2.267,3.398,5.808,4.533,9.633,4.391c5.242-0.141,9.917-4.814,9.917-10.057
		c0-5.525-5.524-142.942-5.667-145.492c2.408,0,11.9,0.142,13.742,0.142c0.425,0,0.708,0,0.708,0.566
		c0.142,2.267,0.425,4.392,0.567,6.658c0.424,5.383,12.75,140.392,13.174,145.917c0.283,4.107,0.709,8.217,0.709,12.324
		c0,8.926-2.268,17.426-6.518,25.217c-2.125,3.967-4.675,7.65-6.941,11.475c-3.4,5.668-6.941,11.334-10.908,16.717
		c-4.108,5.525-6.942,11.617-9.067,18.135c-3.399,10.768-3.825,21.816-3.116,32.865c0.424,6.375,0.85,12.75,1.274,18.984
		c0.425,5.809,0.708,11.617,1.133,17.424c0.425,6.092,0.851,12.186,1.134,18.275c0,0.143,0,0.283,0,0.426
		c32.016,14.449,67.574,22.666,105.117,22.666c140.816,0,255.001-114.184,255.001-254.999
		C561.142,254.972,446.958,140.789,306.141,140.789z M308.975,489.996H289.85V406.98h-19.125v83.016h-19.125V332.039
		c0-15.867,13.034-28.758,28.758-28.758c15.867,0,28.758,13.032,28.758,28.758v157.957H308.975z M347.366,489.996h-19.125V304.697
		h19.125V489.996z M416.925,323.964H397.8v166.032h-19.125V323.964H359.55v-19.125h57.517v19.125H416.925z M467.217,489.996
		c0-4.957,0-9.066,0-13.742V406.98h-19.125v83.018h-19.125v-185.3h38.392c10.625,0,19.125,8.5,19.125,19.125v58.65
		c0,8.782-3.825,12.183-8.5,14.731c4.675,1.842,8.5,5.668,8.5,17.143v61.768c0,5.242,0.143,7.934,0.143,13.742h-19.408
		L467.217,489.996L467.217,489.996z"/>
</g>
<path fill="#FFA500" d="M310.155,604.816"/>
</svg>
